<svg width="96" height="96" viewBox="0 0 96 96" fill="none" xmlns="http://www.w3.org/2000/svg">
<circle cx="48" cy="48" r="48" fill="#3F3E84"/>
<g clip-path="url(#clip0_201_8)">
<path d="M27.7049 58.3792C27.3816 57.6 26.9792 56.8255 26.8615 55.9849C25.3108 45.1465 34.1535 36.359 42.1796 33.0214C50.2055 29.6837 59.4466 34.9929 64.9253 29.2939C66.2941 27.7483 67.6872 26.2847 69.7684 26.2738C70.6358 26.3168 71.3582 26.7245 71.7273 27.4437C78.5755 41.4702 68.7914 58.1018 57.7425 64.0112C50.7306 67.477 43.475 68.2395 36.6835 65.8886C34.7949 65.4406 33.2812 63.4654 31.3236 63.4398C29.9735 64.1973 28.8523 66.6653 27.9362 68.0243C26.8691 69.8763 24.7443 70.366 23.2156 68.7454C18.7566 64.3511 28.0231 60.4511 27.7049 58.3792ZM33.6635 56.5835C34.6211 57.3571 36.0026 57.1378 36.738 56.3658C42.618 49.2415 50.5798 46.1159 59.2389 46.3533C60.5148 46.4273 61.4423 45.3941 61.5243 44.2855C61.55 42.969 60.5368 42.0787 59.4021 42C48.9365 41.4183 39.8568 46.0328 33.4457 53.4818C32.6337 54.4958 32.7812 55.845 33.6635 56.5835Z" fill="white"/>
</g>
<defs>
<clipPath id="clip0_201_8">
<rect width="52" height="52" fill="white" transform="translate(22 22)"/>
</clipPath>
</defs>
</svg>
